<svg version="1.1" xmlns="http://www.w3.org/2000/svg" xmlns:xlink="http://www.w3.org/1999/xlink" width="119.9586" height="119.9586" viewBox="0,0,119.9586,119.9586"><g transform="translate(-180.0207,-120.0207)"><g data-paper-data="{&quot;isPaintingLayer&quot;:true}" fill-rule="nonzero" stroke-linecap="butt" stroke-linejoin="miter" stroke-miterlimit="10" stroke-dasharray="" stroke-dashoffset="0" style="mix-blend-mode: normal"><path d="M182.5207,237.4793v-114.9586h114.9586v114.9586z" fill="#000000" stroke="#101110" stroke-width="5"/><path d="M182.6382,180c0,-31.68005 25.68176,-57.3618 57.36181,-57.3618c31.68005,0 57.36181,25.68176 57.36181,57.36181c0,31.68005 -25.68176,57.36181 -57.3618,57.36181c-31.68005,0 -57.3618,-25.68176 -57.3618,-57.3618z" fill="#ffffff" stroke="#101110" stroke-width="5"/><path d="M240.30594,159.08733c0,-11.95677 9.62212,-21.64964 21.49162,-21.64964c11.8695,0 21.49162,9.69287 21.49162,21.64964c0,11.95677 -9.62212,21.64965 -21.49162,21.64965c-11.8695,0 -21.49162,-9.69288 -21.49162,-21.64965z" fill="#fe0101" stroke="#a30001" stroke-width="6"/><path d="M197.27993,201.36618c0,-11.95677 9.62213,-21.64965 21.49162,-21.64965c11.86949,0 21.49162,9.69288 21.49162,21.64965c0,11.95677 -9.62213,21.64965 -21.49162,21.64965c-11.86949,0 -21.49162,-9.69288 -21.49162,-21.64965z" fill="#016fff" stroke="#003fa2" stroke-width="6"/></g></g></svg>